#!OML:ASF H:\Terrain\Patient Classification 1\Animal1\Tuesday\Animal1.ASF
:FULLY-SPECIFIED
:DEGREES
2339
root 7.05754 16.5478 -14.2495 -351.722 8.49105 1.72345
lowerback -4.73643 -1.46228 0.459567
upperback -2.19482 -1.976 1.39662
thorax 0.433975 -0.9838 1.07497
lowerneck -2.04655 -9.38992 -9.65549
upperneck -17.792 -10.3521 20.6082
head -3.07821 -5.62856 8.13775
rclavicle 9.14409e-015 6.36111e-015
rhumerus -31.293 -29.3406 -57.9016
rradius 12.7686
rwrist -19.417
rhand -24.0096 33.632
rfingers 7.12502
rthumb 2.46809 3.66657
lclavicle 9.14409e-015 6.36111e-015
lhumerus -35.8696 22.5235 64.6813
lradius 24.7154
lwrist -13.0451
lhand 3.67023 47.1468
lfingers 7.12502
lthumb 29.1008 74.8932
rfemur -12.9081 19.6175 19.3497
rtibia 19.4097
rfoot -21.5593 -39.5751
rtoes 30.63
lfemur -7.58117 -23.7807 -17.0609
ltibia 6.0989
lfoot -10.8227 28.53
ltoes 8.84574
2340
root 7.05607 16.5465 -14.2515 -351.82 8.43425 1.9315
lowerback -4.6339 -1.46494 0.181976
upperback -2.13883 -1.9675 1.35829
thorax 0.442176 -0.978325 1.19332
lowerneck -1.98683 -9.40045 -9.56844
upperneck -17.8073 -10.3813 20.4678
head -3.10549 -5.64427 8.08165
rclavicle 4.34841e-014 3.97569e-015
rhumerus -31.1688 -28.7138 -58.2488
rradius 12.9761
rwrist -20.1572
rhand -24.1132 33.508
rfingers 7.12502
rthumb 2.36805 3.54143
lclavicle 4.34841e-014 3.97569e-015
lhumerus -35.7711 22.6784 64.7131
lradius 24.6029
lwrist -13.16
lhand 3.59627 47.3012
lfingers 7.12502
lthumb 29.0302 75.0598
rfemur -12.9083 19.7094 19.1493
rtibia 19.6341
rfoot -22.0573 -39.4246
rtoes 31.4534
lfemur -7.00093 -23.7815 -17.3629
ltibia 5.29282
lfoot -10.7815 28.546
ltoes 10.3927
2341
root 7.05461 16.5454 -14.253 -351.871 8.3501 2.23366
lowerback -4.60714 -1.4766 -0.173398
upperback -2.03922 -1.9689 1.28437
thorax 0.538811 -0.978076 1.31545
lowerneck -2.06924 -9.40057 -9.57641
upperneck -17.7808 -10.38 20.4718
head -3.0831 -5.63931 8.0781
rclavicle -9.6659e-015 2.38542e-014
rhumerus -30.9891 -28.4545 -58.4926
rradius 13.0923
rwrist -20.5562
rhand -24.0237 33.3113
rfingers 7.12502
rthumb 2.45448 3.34569
lclavicle -9.6659e-015 2.38542e-014
lhumerus -35.6057 22.9103 64.7571
lradius 24.494
lwrist -13.3059
lhand 3.42536 47.271
lfingers 7.12502
lthumb 28.8669 75.0576
rfemur -12.8841 19.7 18.8521
rtibia 19.7671
rfoot -22.1941 -39.3144
rtoes 31.5245
lfemur -6.56471 -23.7687 -17.7515
ltibia 4.66989
lfoot -10.6925 28.5849
ltoes 11.6409
2342
root 7.05401 16.5461 -14.2527 -351.816 8.29933 2.28921
lowerback -4.74344 -1.46785 -0.209576
upperback -1.9868 -1.95654 1.25129
thorax 0.668302 -0.972417 1.29782
lowerneck -2.26632 -9.39469 -9.71992
upperneck -17.567 -10.3743 20.6233
head -2.96634 -5.62118 8.12693
rclavicle 1.38404e-014 -7.95139e-015
rhumerus -30.8606 -28.5496 -58.5513
rradius 13.0643
rwrist -20.5272
rhand -23.93 33.1503
rfingers 7.12502
rthumb 2.54493 3.18576
lclavicle 1.38404e-014 -7.95139e-015
lhumerus -35.4812 22.926 64.8264
lradius 24.4544
lwrist -13.3065
lhand 3.37231 47.2363
lfingers 7.12502
lthumb 28.8163 75.0315
rfemur -12.9828 19.6272 18.7763
rtibia 19.8412
rfoot -21.9497 -39.4179
rtoes 31.1506
lfemur -6.33925 -23.7451 -17.8045
ltibia 4.15931
lfoot -10.639 28.5757
ltoes 12.1869
2343
root 7.05405 16.5476 -14.2524 -351.827 8.27917 2.14133
lowerback -4.82479 -1.46329 -0.0306624
upperback -1.95466 -1.95921 1.26407
thorax 0.741179 -0.974647 1.20785
lowerneck -2.36748 -9.34451 -9.77062
upperneck -17.3719 -10.3174 20.6907
head -2.89208 -5.58369 8.14306
rclavicle 1.95554e-014 1.35174e-014
rhumerus -30.8387 -28.7721 -58.4719
rradius 12.9955
rwrist -20.2377
rhand -23.7681 32.9284
rfingers 7.12502
rthumb 2.70135 2.96578
lclavicle 1.95554e-014 1.35174e-014
lhumerus -35.4175 22.9755 64.8054
lradius 24.4218
lwrist -13.3729
lhand 3.53914 47.2077
lfingers 7.12502
lthumb 28.9756 74.9757
rfemur -13.0173 19.6561 18.9307
rtibia 19.8928
rfoot -21.91 -39.4008
rtoes 31.3249
lfemur -6.09836 -23.7225 -17.6537
ltibia 3.70346
lfoot -10.6695 28.5719
ltoes 12.75
2344
root 7.05302 16.5481 -14.2543 -351.899 8.27189 2.09703
lowerback -4.795 -1.46773 0.0132998
upperback -1.91001 -1.96719 1.23922
thorax 0.768253 -0.979061 1.15737
lowerneck -2.31099 -9.28303 -9.65805
upperneck -17.3698 -10.2379 20.6466
head -2.92388 -5.55152 8.11751
rclavicle -2.26863e-014 7.95139e-016
rhumerus -30.9121 -29.6029 -58.0841
rradius 12.7812
rwrist -19.3685
rhand -23.3538 33.0662
rfingers 7.12502
rthumb 3.10147 3.10903
lclavicle -2.26863e-014 7.95139e-016
lhumerus -35.3459 22.9907 64.8207
lradius 24.4489
lwrist -13.3895
lhand 3.53336 47.395
lfingers 7.12502
lthumb 28.9701 75.1639
rfemur -12.9272 19.7018 19.0062
rtibia 19.8582
rfoot -21.5562 -39.3491
rtoes 30.8419
lfemur -6.04642 -23.7352 -17.6304
ltibia 3.73291
lfoot -10.9275 28.4808
ltoes 14.0987
2345
root 7.05171 16.545 -14.2558 -351.948 8.22039 2.31539
lowerback -4.77485 -1.46694 -0.211416
upperback -1.83148 -1.95586 1.14187
thorax 0.841456 -0.973473 1.18322
lowerneck -2.33789 -9.26837 -9.52694
upperneck -17.3107 -10.2306 20.5457
head -2.91959 -5.54788 8.05942
rclavicle -4.09993e-015 2.06736e-014
rhumerus -30.8789 -29.8862 -58.0699
rradius 12.777
rwrist -19.1706
rhand -23.389 33.3245
rfingers 7.12502
rthumb 3.06747 3.36681
lclavicle -4.09993e-015 2.06736e-014
lhumerus -35.1947 22.9485 64.9106
lradius 24.4389
lwrist -13.3446
lhand 3.4038 47.7846
lfingers 7.12502
lthumb 28.8463 75.5747
rfemur -12.8041 19.6514 18.7986
rtibia 19.7753
rfoot -21.5701 -39.3077
rtoes 30.6962
lfemur -6.15355 -23.7492 -17.9055
ltibia 4.13598
lfoot -10.9132 28.4213
ltoes 13.5735
2346
root 7.05172 16.5433 -14.2583 -351.997 8.2225 2.32302
lowerback -4.75945 -1.46795 -0.203362
upperback -1.78615 -1.95757 1.1071
thorax 0.877948 -0.974691 1.14262
lowerneck -2.33301 -9.26194 -9.41886
upperneck -17.1885 -10.2491 20.4076
head -2.89989 -5.55358 7.99047
rclavicle -3.844e-014 7.95139e-015
rhumerus -30.8186 -29.4536 -58.3878
rradius 12.9529
rwrist -19.6498
rhand -23.8449 33.3469
rfingers 7.12502
rthumb 2.62719 3.38329
lclavicle -3.844e-014 7.95139e-015
lhumerus -35.0968 23.0489 64.8752
lradius 24.3515
lwrist -13.4845
lhand 3.46575 47.7055
lfingers 7.12502
lthumb 28.9055 75.4855
rfemur -12.7438 19.6013 18.807
rtibia 19.7638
rfoot -21.9242 -39.2081
rtoes 32.2934
lfemur -6.1703 -23.7798 -17.9318
ltibia 4.26015
lfoot -10.506 28.5994
ltoes 11.5069
2347
root 7.05 16.545 -14.2639 -351.997 8.21787 1.99964
lowerback -4.78906 -1.43989 0.118088
upperback -1.79141 -1.93549 1.17403
thorax 0.880309 -0.964163 1.03179
lowerneck -2.28162 -9.25524 -9.39861
upperneck -17.0417 -10.2689 20.3337
head -2.86997 -5.5594 7.95765
rclavicle -3.40419e-015 -9.54166e-015
rhumerus -30.8105 -29.3895 -58.4527
rradius 12.9646
rwrist -19.6813
rhand -24.0797 33.5752
rfingers 7.12502
rthumb 2.4004 3.60894
lclavicle -3.40419e-015 -9.54166e-015
lhumerus -35.0732 23.161 64.8319
lradius 24.3713
lwrist -13.6402
lhand 3.64802 47.6658
lfingers 7.12502
lthumb 29.0796 75.4158
rfemur -12.8355 19.6476 19.1321
rtibia 19.7584
rfoot -21.5645 -39.3188
rtoes 33.113
lfemur -6.2984 -23.7468 -17.5433
ltibia 4.35847
lfoot -10.4892 28.7529
ltoes 10.6103
2348
root 7.04795 16.5453 -14.2688 -351.952 8.13214 1.90471
lowerback -4.85356 -1.3991 0.210365
upperback -1.77922 -1.88591 1.16622
thorax 0.924666 -0.939637 0.972989
lowerneck -2.29943 -9.23523 -9.41062
upperneck -16.8239 -10.2671 20.3425
head -2.80216 -5.55165 7.9498
rclavicle -9.6659e-015 1.03368e-014
rhumerus -30.8095 -29.7513 -58.3496
rradius 12.868
rwrist -19.2677
rhand -24.1236 33.8649
rfingers 7.12502
rthumb 2.35798 3.8982
lclavicle -9.6659e-015 1.03368e-014
lhumerus -34.9971 23.2192 64.825
lradius 24.3751
lwrist -13.7048
lhand 3.69869 47.8145
lfingers 7.12502
lthumb 29.128 75.5562
rfemur -12.9204 19.6403 19.2086
rtibia 19.6949
rfoot -20.7803 -39.5213
rtoes 31.4924
lfemur -6.53889 -23.6715 -17.4188
ltibia 4.71567
lfoot -10.9514 28.6675
ltoes 11.0145
2349
root 7.04657 16.5431 -14.2718 -352.011 8.08428 1.93382
lowerback -4.79222 -1.38884 0.172373
upperback -1.73937 -1.87004 1.12424
thorax 0.930928 -0.931843 0.953061
lowerneck -2.30217 -9.20199 -9.42565
upperneck -16.6236 -10.2421 20.3914
head -2.74216 -5.53529 7.95819
rclavicle 5.41688e-015 -1.51076e-014
rhumerus -30.8098 -30.0961 -58.2564
rradius 12.749
rwrist -18.8354
rhand -24.122 33.6972
rfingers 7.12502
rthumb 2.35957 3.73053
lclavicle 5.41688e-015 -1.51076e-014
lhumerus -34.9135 23.4779 64.6965
lradius 24.1941
lwrist -13.9565
lhand 3.6519 47.4916
lfingers 7.12502
lthumb 29.0833 75.241
rfemur -12.8259 19.6633 19.1997
rtibia 19.6358
rfoot -20.7153 -39.5139
rtoes 30.6276
lfemur -6.59481 -23.6576 -17.4788
ltibia 4.97981
lfoot -11.3744 28.5238
ltoes 12.0753
